
<svg viewBox="-3 0 32 32" fill="gray" xmlns="http://www.w3.org/2000/svg">
    <path d="M22.554,13.503c-3.552,-2.365 -10.056,-6.696 -13.914,-9.265c-0.921,-0.613 -2.104,-0.67 -3.079,-0.148c-0.975,0.522 -1.584,1.539 -1.584,2.645l0,18.53c0,1.106 0.609,2.123 1.584,2.645c0.975,0.522 2.158,0.465 3.079,-0.148c3.858,-2.569 10.362,-6.9 13.914,-9.265c0.836,-0.556 1.338,-1.493 1.338,-2.497c-0,-1.004 -0.502,-1.941 -1.338,-2.497l0,-0Zm-15.022,-7.601l13.914,9.266c0.278,0.185 0.446,0.497 0.446,0.832c-0,0.335 -0.168,0.647 -0.446,0.832l-13.914,9.266c-0.307,0.204 -0.702,0.223 -1.027,0.049c-0.325,-0.174 -0.528,-0.513 -0.528,-0.882c0,0 0,-18.53 0,-18.53c0,-0.369 0.203,-0.708 0.528,-0.882c0.325,-0.174 0.72,-0.155 1.027,0.049Z"/>
</svg>